<?xml version="1.0" encoding="UTF-8"?>
<svg width="80px" height="80px" viewBox="0 0 80 80" version="1.1" xmlns="http://www.w3.org/2000/svg" xmlns:xlink="http://www.w3.org/1999/xlink">
    <title>Group 16</title>
    <g id="Page-1" stroke="none" stroke-width="1" fill="none" fill-rule="evenodd">
        <g id="Percent-Sync---Venture-Loans-(B2B)" transform="translate(-892.000000, -1408.000000)">
            <g id="//VALUE-PROPS" transform="translate(0.000000, 1313.000000)">
                <g id="3-Bullets" transform="translate(187.000000, 88.000000)">
                    <g id="Simplified-Fees" transform="translate(700.000000, 0.000000)">
                        <g id="Group-16" transform="translate(5.000000, 7.000000)">
                            <path d="M40,80 C62.09139,80 80,62.09139 80,40 C80,17.90861 62.09139,0 40,0 C17.90861,0 0,17.90861 0,40 C0,62.09139 17.90861,80 40,80 Z" id="Oval-Copy-4" fill="#FFFFFF"/>
                            <g id="Terms-Fees-Icon" transform="translate(22.000000, 19.000000)">
                                <g id="Group-6" fill="#FFFFFF" stroke="#1E7AD6" stroke-dasharray="0,0" stroke-linecap="round" stroke-linejoin="round" stroke-width="2">
                                    <path d="M0,19 L0,0 L34,0 L34,38 L18.197351,38" id="Rectangle" transform="translate(17.000000, 19.000000) scale(-1, 1) translate(-17.000000, -19.000000) "/>
                                    <path d="M5.2923054,8.62556523 L6.92650548,10.1643589 L10.0000004,6.15485393" id="Path-3"/>
                                    <path d="M5.2923054,18.6255652 L6.92650548,20.1643589 L10.0000004,16.1548539" id="Path-3-Copy"/>
                                    <path d="M5.2923054,28.6255652 L6.92650548,30.1643589 L10.0000004,26.1548539" id="Path-3-Copy-2"/>
                                    <line x1="14" y1="8.15960641" x2="26.7042404" y2="8.15960641" id="Path-4"/>
                                    <line x1="14" y1="18.1596064" x2="26.7042404" y2="18.1596064" id="Path-4-Copy"/>
                                    <line x1="14" y1="28.1596064" x2="24" y2="28.1596064" id="Path-4-Copy-2"/>
                                </g>
                                <g id="Group-7" transform="translate(18.000000, 21.000000)" stroke="#1E7AD6" stroke-dasharray="0,0" stroke-linecap="round" stroke-linejoin="round" stroke-width="2">
                                    <path d="M10.5,21 C16.2989899,21 21,16.2989899 21,10.5 C21,4.70101013 16.2989899,0 10.5,0 C4.70101013,0 0,4.70101013 0,10.5 C0,16.2989899 4.70101013,21 10.5,21 Z" id="Oval" fill="#FFFFFF"/>
                                    <path d="M13.0979962,7.15960641 C13.0979962,7.15960641 12.1055379,5.87510342 9.95309,5.87510342 C8.20976114,6.00700965 7.29022086,6.81160736 7.19446916,8.28889653 C7.19446915,9.89809193 8.11400943,10.7026896 9.95309,10.7026896 C13.0565385,10.7026896 13.8208691,12.0129132 13.8208691,13.127281 C13.8208691,14.1333624 13.7186894,15.8751034 10.1963474,15.8751034 C8.7944155,15.8751034 7.58624162,15.1300464 6.57182581,13.6399323" id="Vector"/>
                                    <line x1="10.1963474" y1="3.63520322" x2="10.1963474" y2="17.8936867" id="Path-5"/>
                                </g>
                                <g id="dollar-sign" transform="translate(24.571826, 24.635203)"/>
                            </g>
                        </g>
                    </g>
                </g>
            </g>
        </g>
    </g>
</svg>