<?xml version="1.0" encoding="UTF-8"?>
<svg xmlns="http://www.w3.org/2000/svg" xmlns:xlink="http://www.w3.org/1999/xlink" width="60px" height="60px" viewBox="0 0 60 60" version="1.1">
  <title>Nav-Icon-Resources</title>
  <g id="Page-1" stroke="none" stroke-width="1" fill="none" fill-rule="evenodd">
    <g id="Percent---D-Top-Nav-Resources" transform="translate(-249.000000, -104.000000)">
      <g id="Nav-Icon-Resources" transform="translate(249.000000, 104.000000)">
        <g id="Group-9" fill="#FAE6E1">
          <circle id="Oval" cx="30" cy="30" r="30"/>
        </g>
        <g id="process" transform="translate(10.000000, 9.000000)" fill="#000000" fill-rule="nonzero">
          <path d="M34.5948723,35.1317777 C34.3374052,35.1307132 34.1055909,34.9756187 34.0063658,34.7380396 C33.9071407,34.5004604 33.9597863,34.2265632 34.140017,34.0426971 C41.3600891,26.7872689 41.6268533,15.1462256 34.746714,7.567685 C27.8665747,-0.010855595 16.2539213,-0.867419957 8.33626858,5.61961633 C8.1600092,5.77099902 7.91560121,5.81508407 7.69755849,5.73482356 C7.47951577,5.65456305 7.32201994,5.46253907 7.28597549,5.23300832 C7.24993104,5.00347758 7.3409885,4.77242263 7.52393547,4.62919365 C15.9695665,-2.27531195 28.3430774,-1.35667274 35.6765016,6.71930786 C43.0099258,14.7952885 42.7344484,27.1996866 35.0497276,34.9421495 C34.9294579,35.0634774 34.76571,35.1317777 34.5948723,35.1317777 Z" id="Path"/>
          <path d="M20.5007647,41 C12.2228678,41 4.75730991,36.0213757 1.57549318,28.3794784 C-1.60632355,20.7375811 0.120023432,11.9319753 5.95180183,6.05717046 C6.20210907,5.81309975 6.60187452,5.81477208 6.85013096,6.06092842 C7.0983874,6.30708476 7.10345226,6.70681811 6.86151241,6.95918542 C-0.346184437,14.2168143 -0.606591995,25.8481507 6.26907172,33.4210786 C13.1447354,40.9940065 24.7471916,41.8549209 32.6652608,35.3797037 C32.8415202,35.228321 33.0859282,35.1842359 33.3039709,35.2644964 C33.5220137,35.3447569 33.6795095,35.5367809 33.7155539,35.7663117 C33.7515984,35.9958424 33.6605409,36.2268974 33.477594,36.3701263 C29.8142502,39.3617882 25.2304875,40.9971832 20.5007647,41 Z" id="Path"/>
          <path d="M34.5948723,35.2342794 C34.2410559,35.2342794 33.954231,34.947457 33.954231,34.5936437 L33.954231,31.3904656 C33.954231,31.0366523 34.2410559,30.74983 34.5948723,30.74983 C34.9486887,30.74983 35.2355136,31.0366523 35.2355136,31.3904656 L35.2355136,34.5936437 C35.2355136,34.947457 34.9486887,35.2342794 34.5948723,35.2342794 Z" id="Path"/>
          <path d="M37.7980786,35.2342794 L34.5948723,35.2342794 C34.2410559,35.2342794 33.954231,34.947457 33.954231,34.5936437 C33.954231,34.2398305 34.2410559,33.9530081 34.5948723,33.9530081 L37.7980786,33.9530081 C38.151895,33.9530081 38.4387198,34.2398305 38.4387198,34.5936437 C38.4387198,34.947457 38.151895,35.2342794 37.7980786,35.2342794 Z" id="Path"/>
          <path d="M6.40665712,10.24949 C6.05284073,10.24949 5.76601587,9.96266765 5.76601587,9.60885436 L5.76601587,6.40567624 C5.76601587,6.05186295 6.05284073,5.76504061 6.40665712,5.76504061 C6.76047352,5.76504061 7.04729838,6.05186295 7.04729838,6.40567624 L7.04729838,9.60885436 C7.04729838,9.96266765 6.76047352,10.24949 6.40665712,10.24949 Z" id="Path"/>
          <path d="M6.40665712,7.04631186 L3.20345085,7.04631186 C2.84963446,7.04631186 2.5628096,6.75948952 2.5628096,6.40567624 C2.5628096,6.05186295 2.84963446,5.76504061 3.20345085,5.76504061 L6.40665712,5.76504061 C6.76047352,5.76504061 7.04729838,6.05186295 7.04729838,6.40567624 C7.04729838,6.75948952 6.76047352,7.04631186 6.40665712,7.04631186 Z" id="Path"/>
          <path d="M21.6212463,32.6717369 L19.3790019,32.6717369 C18.5506135,32.6708147 17.852118,32.0541131 17.7485699,31.2322286 L17.5852064,29.9240507 C17.5743183,29.7956519 17.4916846,29.684482 17.3718728,29.6370459 C16.9877777,29.5063785 16.6124476,29.3512406 16.2481881,29.1725851 C16.1297179,29.1246658 15.9945772,29.1447774 15.8951947,29.2251172 L14.8547933,30.0335994 C14.2011384,30.5425624 13.270718,30.4848752 12.6849414,29.8990659 L11.1012762,28.3154146 C10.5159244,27.7291789 10.4582666,26.7989754 10.9667416,26.1449411 L11.7752308,25.1058301 C11.8567759,25.0064505 11.8767405,24.87015 11.8271228,24.7515586 C11.6487222,24.3872692 11.493798,24.0119452 11.3632985,23.6278838 C11.3156703,23.5083232 11.2045383,23.4259672 11.0762912,23.4151927 L9.76810178,23.2518306 C8.94572625,23.148222 8.32885799,22.449001 8.32858088,21.6201317 L8.32858088,19.377907 C8.32950305,18.5495259 8.94621009,17.8510365 9.76810178,17.7474893 L11.0762912,17.5841273 C11.2046911,17.5732393 11.315862,17.4906063 11.3632985,17.3707956 C11.4939671,16.9867038 11.6491064,16.611377 11.8277634,16.2471207 C11.8768329,16.1287908 11.8566308,15.993044 11.7752308,15.8941305 L10.9667416,14.8537382 C10.4583567,14.199909 10.5160177,13.2699274 11.1012762,12.6839054 L12.6849414,11.1002541 C13.2710572,10.5146297 14.2014838,10.4569591 14.855434,10.9657206 L15.8951947,11.7742028 C15.9943156,11.8557698 16.1304527,11.8757463 16.2488287,11.8260943 C16.6131213,11.6476952 16.9884487,11.4927724 17.3725135,11.3622741 C17.492075,11.3146463 17.5744318,11.2035153 17.5852064,11.0752693 L17.7485699,9.76709136 C17.8521794,8.94472306 18.5514066,8.32786022 19.3802832,8.32758311 L21.6225275,8.32758311 C22.4509159,8.32850527 23.1494114,8.9452069 23.2529595,9.76709136 L23.4163231,11.0752693 C23.4272111,11.2036681 23.5098448,11.314838 23.6296566,11.3622741 C24.0137517,11.4929415 24.3890818,11.6480794 24.7533414,11.8267349 C24.8716358,11.8760983 25.0075408,11.855873 25.1063347,11.7742028 L26.1467361,10.9657206 C26.8004811,10.4570491 27.730686,10.5147229 28.316588,11.1002541 L29.9002532,12.6839054 C30.485605,13.2701411 30.5432628,14.2003445 30.0347879,14.8543789 L29.2262986,15.8954118 C29.1447308,15.9945318 29.1247542,16.1306676 29.1744066,16.2490426 C29.3528073,16.613332 29.5077314,16.9886561 29.6382309,17.3727175 C29.6858591,17.492278 29.7969911,17.5746341 29.9252382,17.5854085 L31.2334276,17.7487706 C32.0553193,17.8523178 32.6720264,18.5508072 32.6729485,19.3791883 L32.6729485,21.621413 C32.6720264,22.4497941 32.0553193,23.1482835 31.2334276,23.2518306 L29.9252382,23.4151927 C29.7968383,23.4260806 29.6856674,23.5087137 29.6382309,23.6285244 C29.5075624,24.0126161 29.3524231,24.387943 29.173766,24.7521993 C29.1246965,24.8705292 29.1448986,25.0062759 29.2262986,25.1051895 L30.0347879,26.1455818 C30.5431728,26.799411 30.4855118,27.7293926 29.9002532,28.3154146 L28.316588,29.8990659 C27.7305976,30.4849683 26.7999556,30.5426522 26.1460954,30.0335994 L25.105694,29.2251172 C25.0063135,29.1435728 24.8700119,29.1236084 24.7514194,29.1732257 C24.3871268,29.3516248 24.0117995,29.5065476 23.6277347,29.6370459 C23.5081731,29.6846737 23.4258163,29.7958047 23.4150418,29.9240507 L23.2516783,31.2322286 C23.1481302,32.0541131 22.4496346,32.6708147 21.6212463,32.6717369 L21.6212463,32.6717369 Z M16.1245443,27.8669697 C16.3630661,27.8661482 16.5986227,27.9198327 16.8132337,28.0239254 C17.128966,28.178544 17.4542143,28.3129217 17.7870084,28.4262446 C18.3695244,28.6337908 18.784403,29.1531289 18.8581605,29.7670949 L19.0208834,31.0752729 C19.0440495,31.2562318 19.1978464,31.3919338 19.3802832,31.3923875 L21.6225275,31.3923875 C21.8049643,31.3919338 21.9587612,31.2562318 21.9819273,31.0752729 L22.1446502,29.7670949 C22.2184412,29.1533467 22.6329866,28.634115 23.2151617,28.4262446 C23.5479252,28.3130898 23.8731707,28.1789272 24.1889364,28.024566 C24.7475331,27.7607519 25.4072375,27.835154 25.8930421,28.2167567 L26.930881,29.0201138 C27.0752383,29.1316278 27.2798556,29.1190277 27.40944,28.9906446 L28.9943865,27.405712 C29.1232288,27.2765899 29.1358585,27.0717708 29.023856,26.9277979 L28.2153667,25.8874056 C27.8334093,25.4022415 27.7589672,24.7426901 28.0231743,24.1845961 C28.1777942,23.8688666 28.3121731,23.5436211 28.425497,23.21083 C28.633045,22.6283191 29.1523877,22.2134441 29.7663592,22.1396872 L31.0745486,21.9769657 C31.2545484,21.9539307 31.3899335,21.8015896 31.391666,21.6201317 L31.391666,19.377907 C31.3912123,19.1954719 31.2555091,19.0416763 31.0745486,19.0185104 L29.7663592,18.855789 C29.1526055,18.7819986 28.6333693,18.3674568 28.425497,17.7852868 C28.3123412,17.4525263 28.1781774,17.1272837 28.023815,16.8115207 C27.7592276,16.2530571 27.8336783,15.5929337 28.2160073,15.1074299 L29.0212934,14.0696002 C29.133386,13.9254221 29.1207595,13.7203812 28.9918239,13.5910454 L27.4068774,12.0061129 C27.2776297,11.8775485 27.0730228,11.8649321 26.9289591,11.9766436 L25.8885577,12.7851258 C25.4035084,13.1673697 24.7437806,13.2418305 24.1857332,12.9773165 C23.8700009,12.8226979 23.5447526,12.6883202 23.2119585,12.5749973 C22.6294425,12.3674511 22.2145638,11.848113 22.1408063,11.2341469 L21.980646,9.92917218 C21.9589618,9.74694293 21.8047615,9.60951073 21.6212463,9.60885436 L19.3790019,9.60885436 C19.1965651,9.60930811 19.0427682,9.74501007 19.0196021,9.925969 L18.8568793,11.2341469 C18.7830883,11.8478952 18.3685428,12.3671269 17.7863677,12.5749973 C17.4536042,12.6881521 17.1283588,12.8223147 16.812593,12.9766758 C16.2540988,13.2411064 15.5940548,13.166666 15.1084873,12.7844852 L14.0706484,11.9792062 C13.9263797,11.8674041 13.7215505,11.8800173 13.5920894,12.0086754 L12.007143,13.593608 C11.8783006,13.7227301 11.8656709,13.9275491 11.9776735,14.0715221 L12.7861627,15.1119144 C13.1681201,15.5970784 13.2425623,16.2566299 12.9783551,16.8147239 C12.8237352,17.1304534 12.6893563,17.4556989 12.5760324,17.78849 C12.3684844,18.3710009 11.8491417,18.7858759 11.2351703,18.8596328 L9.93018402,19.0197917 C9.7492235,19.0429576 9.61352035,19.1967531 9.6130666,19.3791883 L9.6130666,21.621413 C9.61352035,21.8038481 9.7492235,21.9576437 9.93018402,21.9808096 L11.2383735,22.143531 C11.8521271,22.2173213 12.3713633,22.6318632 12.5792356,23.2140331 C12.6923914,23.5467937 12.8265552,23.8720363 12.9809177,24.1877993 C13.245505,24.7462629 13.1710543,25.4063863 12.7887253,25.8918901 L11.980236,26.9297198 C11.8681434,27.0738978 11.8807699,27.2789388 12.0097055,27.4082746 L13.594652,28.9932071 C13.7237752,29.1220483 13.9285961,29.1346779 14.0725704,29.0226764 L15.1129718,28.2141942 C15.4024331,27.9896746 15.7582146,27.8675519 16.1245443,27.8669697 Z" id="Shape"/>
          <path d="M20.5007647,26.1853012 C17.3606442,26.1853012 14.8150736,23.6397529 14.8150736,20.49966 C14.8150736,17.3595671 17.3606442,14.8140188 20.5007647,14.8140188 C23.6408852,14.8140188 26.1864558,17.3595671 26.1864558,20.49966 C26.1829253,23.6382894 23.6394216,26.1817706 20.5007647,26.1853012 Z M20.5007647,16.0952901 C18.068277,16.0952901 16.0963561,18.0671937 16.0963561,20.49966 C16.0963561,22.9321263 18.068277,24.9040299 20.5007647,24.9040299 C22.9332524,24.9040299 24.9051733,22.9321263 24.9051733,20.49966 C24.9023491,18.0683644 22.9320816,16.0981143 20.5007647,16.0952901 L20.5007647,16.0952901 Z" id="Shape"/>
        </g>
      </g>
    </g>
  </g>
</svg>