<?xml version="1.0" encoding="UTF-8"?>
<svg width="80px" height="80px" viewBox="0 0 80 80" version="1.1" xmlns="http://www.w3.org/2000/svg" xmlns:xlink="http://www.w3.org/1999/xlink">
    <title>Group 12@2x</title>
    <g id="Page-1" stroke="none" stroke-width="1" fill="none" fill-rule="evenodd">
        <g id="Percent-Sync---Venture-Loans-(B2B)" transform="translate(-533.000000, -1408.000000)">
            <g id="//VALUE-PROPS" transform="translate(0.000000, 1313.000000)">
                <g id="3-Bullets" transform="translate(187.000000, 88.000000)">
                    <g id="Optimize-for-next-round" transform="translate(342.000000, 1.000000)">
                        <g id="Group-12" transform="translate(4.000000, 6.000000)">
                            <path d="M40,80 C62.09139,80 80,62.09139 80,40 C80,17.90861 62.09139,0 40,0 C17.90861,0 0,17.90861 0,40 C0,62.09139 17.90861,80 40,80 Z" id="Oval-Copy-4" fill="#FFFFFF"/>
                            <g id="ecommerce_graph_increase" transform="translate(22.000000, 18.000000)" stroke="#1E7AD6" stroke-dasharray="0,0" stroke-linecap="round" stroke-linejoin="round" stroke-width="2">
                                <path d="M0,29.8181818 L7.61538462,29.8181818 L7.61538462,41 L0,41 L0,29.8181818 Z" id="Rectangle" fill="#FFFFFF"/>
                                <path d="M25.3846154,12.4242424 L33,12.4242424 L33,41 L25.3846154,41 L25.3846154,12.4242424 Z" id="Rectangle" fill="#FFFFFF"/>
                                <path d="M12.6923077,21.1212121 L20.3076923,21.1212121 L20.3076923,41 L12.6923077,41 L12.6923077,21.1212121 Z" id="Rectangle" fill="#FFFFFF"/>
                                <line x1="2.53846154" y1="24.8484848" x2="32.3653846" y2="0.247645373" id="Path" fill="#FFFFFF"/>
                                <path d="M25.1959459,0 L32.3653846,0 L32.3653846,7.01801802" id="Path"/>
                            </g>
                        </g>
                    </g>
                </g>
            </g>
        </g>
    </g>
</svg>