<?xml version="1.0" encoding="UTF-8"?>
<svg xmlns="http://www.w3.org/2000/svg" xmlns:xlink="http://www.w3.org/1999/xlink" width="60px" height="60px" viewBox="0 0 60 60" version="1.1">
  <title>Nav-Icon-RaiseCapital</title>
  <g id="Page-1" stroke="none" stroke-width="1" fill="none" fill-rule="evenodd">
    <g id="Percent---B-Top-Nav-Raise-Capital" transform="translate(-249.000000, -104.000000)">
      <g id="Nav-Icon-RaiseCapital" transform="translate(249.000000, 104.000000)">
        <circle id="Oval" fill="#DEDFFC" cx="30" cy="30" r="30"/>
        <g id="Group-3" transform="translate(15.000000, 13.000000)" fill="#000000" stroke="#000000" stroke-width="0.25">
          <path d="M1.0885658,14.241537 C1.0885658,14.9983824 1.72114808,15.6165177 2.49721686,15.6165177 C3.27259579,15.6165177 3.90586791,14.9983824 3.90586791,14.241537 C3.90586791,13.4846916 3.27259579,12.8665563 2.49721686,12.8665563 C1.72114808,12.8665563 1.0885658,13.4846916 1.0885658,14.241537 L1.0885658,14.241537 Z M9.36939209,7.46696271 C9.36939209,8.22448146 10.0019744,8.8419434 10.7780431,8.8419434 C11.5534221,8.8419434 12.1866942,8.22448146 12.1866942,7.46696271 C12.1866942,6.71011732 11.5534221,6.09198202 10.7780431,6.09198202 C10.0019744,6.09198202 9.36939209,6.71011732 9.36939209,7.46696271 L9.36939209,7.46696271 Z M20.2288362,7.46696271 C20.2288362,8.22448146 20.8621083,8.8419434 21.6374873,8.8419434 C22.413556,8.8419434 23.0461383,8.22448146 23.0461383,7.46696271 C23.0461383,6.71011732 22.413556,6.09198202 21.6374873,6.09198202 C20.8621083,6.09198202 20.2288362,6.71011732 20.2288362,7.46696271 L20.2288362,7.46696271 Z M0,14.241537 C0,12.9002238 1.12236791,11.80401 2.49721686,11.80401 C3.06840347,11.80401 3.59268105,11.9898546 4.01417262,12.3090225 L8.56641959,8.58943716 C8.38982083,8.25074211 8.28772467,7.87231941 8.28772467,7.46696271 C8.28772467,6.12564952 9.41009258,5.02943573 10.7849415,5.02943573 C11.9756035,5.02943573 12.9689715,5.84620927 13.2207627,6.93568957 L19.2085645,6.93568957 C19.4603557,5.84620927 20.4537237,5.02943573 21.6443857,5.02943573 C22.079674,5.02943573 22.494957,5.14255853 22.8488444,5.33513663 L26.3870282,1.42297315 L23.2227371,2.20675255 C22.5356575,2.3798035 22.2569626,1.35025136 22.9578389,1.17720041 L27.6659895,0.0149983144 C28.0060801,-0.064456985 28.3468605,0.181315763 28.3468605,0.526744311 L28.3668658,5.26847498 C28.3668658,5.97279907 27.2783,5.97279907 27.2783,5.26847498 L27.2645033,2.0539021 L23.6718222,6.03272722 C23.9712123,6.43067707 24.1485009,6.92895607 24.1485009,7.46022921 C24.1485009,8.80221575 23.0254432,9.8977562 21.6512841,9.8977562 C20.4606221,9.8977562 19.4672541,9.08098265 19.2154629,7.99150236 L13.2276611,7.99150236 C12.9758699,9.08098265 11.9825019,9.8977562 10.7918399,9.8977562 C10.2199635,9.8977562 9.69568589,9.7119116 9.27419432,9.39341705 L4.72194734,13.1123291 C4.89923594,13.4442906 5.0013321,13.8294468 5.0013321,14.2348035 C5.0013321,15.5767901 3.87827436,16.6723614 2.50411525,16.6723614 C1.1292663,16.679064 0,15.5828502 0,14.241537 Z M27.9108823,24.1040944 C27.9108823,19.2297138 23.8491108,15.2643557 18.8546771,15.2643557 C13.8602434,15.2643557 9.79778205,19.2297138 9.79778205,24.1040944 C9.79778205,28.9791484 13.8602434,32.9445065 18.8546771,32.9445065 C23.8491108,32.937773 27.9108823,28.9724149 27.9108823,24.1040944 L27.9108823,24.1040944 Z M3.17049963,31.0247857 L11.6217161,31.0247857 C10.6828454,30.0888292 9.92747176,28.9724149 9.42388936,27.737491 L3.17049963,27.737491 C0.965774475,27.737491 0.952667536,31.0247857 3.17049963,31.0247857 L3.17049963,31.0247857 Z M3.17049963,26.6749447 L9.06310361,26.6749447 C8.83890596,25.8514376 8.71611464,24.9942631 8.71611464,24.1040944 C8.71611464,23.8650552 8.72301303,23.6260159 8.74370819,23.3869767 L3.17049963,23.3869767 C0.965774475,23.3869767 0.952667536,26.6749447 3.17049963,26.6749447 L3.17049963,26.6749447 Z M3.17049963,22.3244304 L8.87960646,22.3244304 C9.09690572,21.1420278 9.5397823,20.0330203 10.144771,19.0371357 L3.16360124,19.0371357 C0.945769147,19.0371357 0.952667536,22.3244304 3.17049963,22.3244304 L3.17049963,22.3244304 Z M29.000138,24.1040944 C29.000138,29.5636162 24.447891,34.0003193 18.8546771,34.0003193 C16.6161498,34.0003193 14.5473229,33.289935 12.8668754,32.0880053 L3.16360124,32.0880053 C0.489785627,32.0880053 -0.605678564,28.7468426 1.51695576,27.1994843 C0.0200053284,26.123471 0.0407004957,23.9249833 1.51695576,22.8422365 C-0.598780175,21.3150787 0.482887238,17.9611224 3.16360124,17.9611224 L10.8932462,17.9611224 C12.7509824,15.6629789 15.6296802,14.1883424 18.8546771,14.1883424 C24.447891,14.2018094 29.000138,18.645246 29.000138,24.1040944 L29.000138,24.1040944 Z M19.6845533,28.2155695 L19.4058584,28.2155695 L19.4058584,29.0060824 C19.4058584,29.7029996 18.3172926,29.7029996 18.3172926,29.0060824 L18.3172926,28.2155695 L16.5002569,28.2155695 C16.2008668,28.2155695 15.955974,27.9765302 15.955974,27.6842963 C15.955974,27.3920624 16.2008668,27.1530232 16.5002569,27.1530232 L19.6845533,27.1530232 C21.3311988,27.1530232 21.3311988,24.5693792 19.6845533,24.5693792 L18.0310094,24.5693792 C14.9557076,24.5693792 14.9557076,19.9730922 18.0310094,19.9730922 L18.3172926,19.9730922 L18.3172926,19.1893128 C18.3172926,18.4923955 19.4058584,18.4923955 19.4058584,19.1893128 L19.4058584,19.9730922 L21.3449956,19.9730922 C22.0596687,19.9730922 22.0596687,21.0356385 21.3449956,21.0356385 L18.0379078,21.0356385 C16.4050591,21.0356385 16.4050591,23.506833 18.0379078,23.506833 L19.6914517,23.506833 C22.773652,23.506833 22.7667536,28.2155695 19.6845533,28.2155695 Z" id="Fill-1"/>
        </g>
      </g>
    </g>
  </g>
</svg>