<?xml version="1.0" encoding="UTF-8"?>
<svg width="80px" height="80px" viewBox="0 0 80 80" version="1.1" xmlns="http://www.w3.org/2000/svg" xmlns:xlink="http://www.w3.org/1999/xlink">
    <title>Group 11@2x</title>
    <g id="Page-1" stroke="none" stroke-width="1" fill="none" fill-rule="evenodd">
        <g id="Percent-Sync---Venture-Loans-(B2B)" transform="translate(-190.000000, -1408.000000)">
            <g id="//VALUE-PROPS" transform="translate(0.000000, 1313.000000)">
                <g id="3-Bullets" transform="translate(187.000000, 88.000000)">
                    <g id="Group-11" transform="translate(3.000000, 7.000000)">
                        <path d="M40,80 C62.09139,80 80,62.09139 80,40 C80,17.90861 62.09139,0 40,0 C17.90861,0 0,17.90861 0,40 C0,62.09139 17.90861,80 40,80 Z" id="Oval-Copy-4" fill="#FFFFFF"/>
                        <g id="Icon" transform="translate(17.000000, 20.000000)" stroke="#1E7AD6" stroke-dasharray="0,0" stroke-linecap="round" stroke-linejoin="round" stroke-width="2">
                            <path d="M0,11.7025865 L23.8683904,0 L46,11.7025865 L23.8683904,22.1525905 L0,11.7025865 Z" id="Path-2" fill="#FFFFFF"/>
                            <path d="M6.5449036,17.0851855 L0,20.1457407 L23.8683904,31.0762953 L46,20.6262912 L40.1034182,17.0851855" id="Path-15"/>
                            <path d="M6.5449036,26.0088902 L0,29.0694455 L23.8683904,40 L46,29.549996 L40.1034182,26.0088902" id="Path-15-Copy"/>
                        </g>
                    </g>
                </g>
            </g>
        </g>
    </g>
</svg>